<svg width="40" height="40" viewBox="0 0 40 40" fill="none" xmlns="http://www.w3.org/2000/svg">
    <path
        d="M33.3873 33.325H6.6123C5.20385 33.3234 3.85356 32.7632 2.85763 31.7672C1.8617 30.7713 1.30146 29.421 1.2998 28.0125V11.9875C1.30146 10.5791 1.8617 9.2288 2.85763 8.23287C3.85356 7.23694 5.20385 6.6767 6.6123 6.67505H33.3873C34.7958 6.6767 36.1461 7.23694 37.142 8.23287C38.1379 9.2288 38.6981 10.5791 38.6998 11.9875V28.0125C38.6981 29.421 38.1379 30.7713 37.142 31.7672C36.1461 32.7632 34.7958 33.3234 33.3873 33.325ZM6.6123 8.55005C5.70062 8.55005 4.82628 8.91221 4.18163 9.55687C3.53697 10.2015 3.1748 11.0759 3.1748 11.9875V28.0125C3.1748 28.9242 3.53697 29.7986 4.18163 30.4432C4.82628 31.0879 5.70062 31.45 6.6123 31.45H33.3873C34.299 31.45 35.1733 31.0879 35.818 30.4432C36.4626 29.7986 36.8248 28.9242 36.8248 28.0125V11.9875C36.8248 11.0759 36.4626 10.2015 35.818 9.55687C35.1733 8.91221 34.299 8.55005 33.3873 8.55005H6.6123Z" />
    <path
        d="M20.0002 23.8C18.8437 23.8018 17.7181 23.4266 16.794 22.7313L2.20021 11.6938C2.09709 11.6214 2.00963 11.529 1.94302 11.4221C1.87642 11.3151 1.83205 11.1959 1.81256 11.0714C1.79307 10.947 1.79886 10.8199 1.82959 10.6977C1.86032 10.5755 1.91535 10.4608 1.9914 10.3604C2.06746 10.26 2.16297 10.1759 2.27223 10.1132C2.3815 10.0505 2.50228 10.0105 2.62736 9.99554C2.75244 9.98056 2.87925 9.99096 3.00023 10.0261C3.1212 10.0612 3.23385 10.1204 3.33146 10.2L17.9252 21.25C18.5245 21.6974 19.2523 21.9391 20.0002 21.9391C20.7481 21.9391 21.4759 21.6974 22.0752 21.25L36.669 10.2C36.7666 10.1204 36.8792 10.0612 37.0002 10.0261C37.1212 9.99096 37.248 9.98056 37.3731 9.99554C37.4981 10.0105 37.6189 10.0505 37.7282 10.1132C37.8374 10.1759 37.933 10.26 38.009 10.3604C38.0851 10.4608 38.1401 10.5755 38.1708 10.6977C38.2016 10.8199 38.2073 10.947 38.1879 11.0714C38.1684 11.1959 38.124 11.3151 38.0574 11.4221C37.9908 11.529 37.9033 11.6214 37.8002 11.6938L23.2065 22.7313C22.2823 23.4266 21.1567 23.8018 20.0002 23.8Z" />
    <path
        d="M2.60636 30.7125C2.41622 30.7128 2.23048 30.6552 2.07381 30.5475C1.91713 30.4398 1.79691 30.2869 1.72911 30.1093C1.66131 29.9316 1.64912 29.7376 1.69418 29.5529C1.73923 29.3681 1.83939 29.2015 1.98136 29.075L13.4814 18.8187C13.667 18.653 13.9109 18.5678 14.1594 18.5818C14.4079 18.5959 14.6406 18.7081 14.8064 18.8937C14.9721 19.0794 15.0573 19.3233 15.0433 19.5718C15.0292 19.8203 14.917 20.053 14.7314 20.2187L3.23136 30.475C3.06058 30.6304 2.83724 30.7152 2.60636 30.7125ZM37.3939 30.7125C37.163 30.7152 36.9396 30.6304 36.7689 30.475L25.2689 20.2187C25.0832 20.053 24.971 19.8203 24.9569 19.5718C24.9429 19.3233 25.0281 19.0794 25.1939 18.8937C25.3596 18.7081 25.5923 18.5959 25.8408 18.5818C26.0893 18.5678 26.3332 18.653 26.5189 18.8187L38.0126 29.075C38.1546 29.2015 38.2547 29.3681 38.2998 29.5529C38.3448 29.7376 38.3327 29.9316 38.2649 30.1093C38.1971 30.2869 38.0768 30.4398 37.9202 30.5475C37.7635 30.6552 37.5777 30.7128 37.3876 30.7125H37.3939Z" />
</svg>