<svg width="36" height="36" viewBox="0 0 40 40" fill="none" xmlns="http://www.w3.org/2000/svg">
    <path
        d="M20.0002 3.74451C16.0427 3.74467 12.2143 5.15303 9.20015 7.71759C6.18599 10.2821 4.18271 13.8355 3.54876 17.742C2.91482 21.6484 3.69157 25.653 5.74004 29.0391C7.78851 32.4252 10.975 34.972 14.7294 36.2237C15.5627 36.3695 15.8752 35.8695 15.8752 35.432C15.8752 35.0362 15.8544 33.7237 15.8544 32.3278C11.6669 33.0987 10.5835 31.3071 10.2502 30.3696C9.88033 29.4578 9.294 28.6498 8.54187 28.0153C7.95854 27.7028 7.12521 26.932 8.52102 26.9112C9.054 26.969 9.56519 27.1545 10.0113 27.4519C10.4573 27.7492 10.8251 28.1498 11.0835 28.6195C11.3115 29.029 11.618 29.3895 11.9855 29.6803C12.353 29.9712 12.7743 30.1866 13.2253 30.3143C13.6762 30.4421 14.1479 30.4796 14.6133 30.4247C15.0788 30.3698 15.5288 30.2236 15.9377 29.9945C16.0098 29.1472 16.3874 28.355 17.0002 27.7654C13.2919 27.3487 9.41687 25.9112 9.41687 19.5362C9.39345 17.8798 10.0047 16.2772 11.1252 15.0571C10.6157 13.6174 10.6753 12.0375 11.2919 10.6404C11.2919 10.6404 12.6877 10.2029 15.8752 12.3487C18.6024 11.5987 21.4814 11.5987 24.2085 12.3487C27.396 10.1821 28.7919 10.6404 28.7919 10.6404C29.4085 12.0375 29.4682 13.6174 28.9585 15.0571C30.0824 16.2751 30.6942 17.8791 30.6669 19.5362C30.6669 25.932 26.771 27.3487 23.0627 27.7654C23.4605 28.1685 23.7668 28.6525 23.9609 29.1846C24.155 29.7166 24.2324 30.2842 24.1877 30.8487C24.1877 33.0779 24.1669 34.8695 24.1669 35.4321C24.1669 35.8696 24.4794 36.3904 25.3127 36.2237C29.0605 34.9618 32.2378 32.4091 34.2776 29.0213C36.3173 25.6334 37.0867 21.6309 36.4483 17.7282C35.81 13.8256 33.8055 10.2768 30.7927 7.71536C27.7798 5.15392 23.9547 3.74657 20.0002 3.74451Z" />
</svg>