<svg width="36" height="36" viewBox="0 0 40 40" fill="none" xmlns="http://www.w3.org/2000/svg">
    <path
        d="M28.9002 9.10004C28.5046 9.10004 28.1179 9.21734 27.789 9.4371C27.4601 9.65686 27.2038 9.96922 27.0524 10.3347C26.901 10.7001 26.8614 11.1023 26.9386 11.4902C27.0158 11.8782 27.2062 12.2345 27.4859 12.5143C27.7657 12.794 28.122 12.9844 28.51 13.0616C28.8979 13.1388 29.3001 13.0992 29.6655 12.9478C30.031 12.7964 30.3433 12.5401 30.5631 12.2112C30.7829 11.8823 30.9002 11.4956 30.9002 11.1C30.9002 10.5696 30.6894 10.0609 30.3144 9.68583C29.9393 9.31075 29.4306 9.10004 28.9002 9.10004ZM36.5668 13.1334C36.5344 11.7505 36.2754 10.3824 35.8002 9.08337C35.3764 7.97193 34.7168 6.9655 33.8668 6.13337C33.0415 5.27908 32.0328 4.62367 30.9168 4.21671C29.6213 3.72698 28.2516 3.46206 26.8668 3.43337C25.1002 3.33337 24.5335 3.33337 20.0002 3.33337C15.4668 3.33337 14.9002 3.33337 13.1335 3.43337C11.7487 3.46206 10.3791 3.72698 9.0835 4.21671C7.96962 4.62779 6.96172 5.28264 6.1335 6.13337C5.27921 6.95867 4.62379 7.96744 4.21683 9.08337C3.7271 10.3789 3.46218 11.7486 3.4335 13.1334C3.3335 14.9 3.3335 15.4667 3.3335 20C3.3335 24.5334 3.3335 25.1 3.4335 26.8667C3.46218 28.2515 3.7271 29.6211 4.21683 30.9167C4.62379 32.0326 5.27921 33.0414 6.1335 33.8667C6.96172 34.7174 7.96962 35.3723 9.0835 35.7834C10.3791 36.2731 11.7487 36.538 13.1335 36.5667C14.9002 36.6667 15.4668 36.6667 20.0002 36.6667C24.5335 36.6667 25.1002 36.6667 26.8668 36.5667C28.2516 36.538 29.6213 36.2731 30.9168 35.7834C32.0328 35.3764 33.0415 34.721 33.8668 33.8667C34.7206 33.0377 35.3807 32.0304 35.8002 30.9167C36.2754 29.6177 36.5344 28.2495 36.5668 26.8667C36.5668 25.1 36.6668 24.5334 36.6668 20C36.6668 15.4667 36.6668 14.9 36.5668 13.1334ZM33.5668 26.6667C33.5547 27.7247 33.3631 28.7729 33.0002 29.7667C32.7341 30.492 32.3066 31.1474 31.7502 31.6834C31.2096 32.2342 30.5555 32.6608 29.8335 32.9334C28.8397 33.2963 27.7914 33.4879 26.7335 33.5C25.0668 33.5834 24.4502 33.6 20.0668 33.6C15.6835 33.6 15.0668 33.6 13.4002 33.5C12.3016 33.5206 11.2078 33.3515 10.1668 33C9.47647 32.7135 8.85242 32.288 8.3335 31.75C7.78031 31.2146 7.35823 30.5587 7.10016 29.8334C6.69326 28.8253 6.46757 27.7533 6.4335 26.6667C6.4335 25 6.3335 24.3834 6.3335 20C6.3335 15.6167 6.3335 15 6.4335 13.3334C6.44097 12.2518 6.63841 11.1799 7.01683 10.1667C7.31024 9.46323 7.7606 8.83614 8.3335 8.33337C8.83985 7.76032 9.46564 7.3052 10.1668 7.00004C11.1827 6.63345 12.2535 6.44184 13.3335 6.43337C15.0002 6.43337 15.6168 6.33337 20.0002 6.33337C24.3835 6.33337 25.0002 6.33337 26.6668 6.43337C27.7248 6.44551 28.773 6.63712 29.7668 7.00004C30.5242 7.28113 31.204 7.73812 31.7502 8.33337C32.2963 8.84534 32.7231 9.47126 33.0002 10.1667C33.3706 11.1816 33.5623 12.253 33.5668 13.3334C33.6502 15 33.6668 15.6167 33.6668 20C33.6668 24.3834 33.6502 25 33.5668 26.6667ZM20.0002 11.45C18.3098 11.4533 16.6584 11.9576 15.2546 12.8991C13.8507 13.8406 12.7575 15.177 12.1129 16.7396C11.4683 18.3022 11.3014 20.0208 11.6332 21.6783C11.9649 23.3357 12.7806 24.8576 13.977 26.0517C15.1734 27.2457 16.6968 28.0584 18.3549 28.387C20.013 28.7155 21.7313 28.5452 23.2926 27.8976C24.8539 27.25 26.1883 26.1541 27.127 24.7484C28.0658 23.3428 28.5668 21.6904 28.5668 20C28.569 18.8752 28.3488 17.7611 27.9189 16.7216C27.489 15.6822 26.8578 14.7381 26.0616 13.9435C25.2655 13.1489 24.3201 12.5195 23.2798 12.0916C22.2396 11.6637 21.125 11.4456 20.0002 11.45ZM20.0002 25.55C18.9025 25.55 17.8294 25.2245 16.9167 24.6147C16.0041 24.0049 15.2927 23.1381 14.8726 22.1239C14.4526 21.1098 14.3427 19.9939 14.5568 18.9173C14.771 17.8407 15.2995 16.8518 16.0757 16.0756C16.8519 15.2994 17.8408 14.7708 18.9174 14.5567C19.994 14.3425 21.1099 14.4524 22.1241 14.8725C23.1382 15.2926 24.005 16.0039 24.6148 16.9166C25.2247 17.8293 25.5502 18.9024 25.5502 20C25.5502 20.7289 25.4066 21.4506 25.1277 22.1239C24.8488 22.7973 24.44 23.4091 23.9246 23.9245C23.4092 24.4398 22.7974 24.8487 22.1241 25.1276C21.4507 25.4065 20.729 25.55 20.0002 25.55Z" />
</svg>