<svg width="36" height="36" viewBox="0 0 40 40" fill="none" xmlns="http://www.w3.org/2000/svg">
    <g filter="url(#filter0_d_704_611)">
        <path
            d="M35.1164 3.33336H6.88311C6.56574 3.32896 6.25061 3.38711 5.95571 3.5045C5.66082 3.6219 5.39194 3.79623 5.16443 4.01755C4.93692 4.23887 4.75524 4.50284 4.62976 4.79438C4.50428 5.08592 4.43745 5.39933 4.43311 5.7167V34.2834C4.43745 34.6007 4.50428 34.9141 4.62976 35.2057C4.75524 35.4972 4.93692 35.7612 5.16443 35.9825C5.39194 36.2038 5.66082 36.3782 5.95571 36.4956C6.25061 36.6129 6.56574 36.6711 6.88311 36.6667H35.1164C35.4338 36.6711 35.7489 36.6129 36.0438 36.4956C36.3387 36.3782 36.6076 36.2038 36.8351 35.9825C37.0626 35.7612 37.2443 35.4972 37.3698 35.2057C37.4953 34.9141 37.5621 34.6007 37.5664 34.2834V5.7167C37.5621 5.39933 37.4953 5.08592 37.3698 4.79438C37.2443 4.50284 37.0626 4.23887 36.8351 4.01755C36.6076 3.79623 36.3387 3.6219 36.0438 3.5045C35.7489 3.38711 35.4338 3.32896 35.1164 3.33336ZM14.4831 31.2334H9.48311V16.2334H14.4831V31.2334ZM11.9831 14.1334C11.2935 14.1334 10.6322 13.8594 10.1446 13.3718C9.65703 12.8842 9.38311 12.2229 9.38311 11.5334C9.38311 10.8438 9.65703 10.1825 10.1446 9.69489C10.6322 9.20729 11.2935 8.93336 11.9831 8.93336C12.3493 8.89184 12.7201 8.92812 13.0712 9.03984C13.4224 9.15155 13.746 9.33618 14.0209 9.58163C14.2957 9.82709 14.5156 10.1278 14.6662 10.4642C14.8168 10.8005 14.8946 11.1649 14.8946 11.5334C14.8946 11.9019 14.8168 12.2662 14.6662 12.6026C14.5156 12.9389 14.2957 13.2396 14.0209 13.4851C13.746 13.7305 13.4224 13.9152 13.0712 14.0269C12.7201 14.1386 12.3493 14.1749 11.9831 14.1334ZM32.5164 31.2334H27.5164V23.1834C27.5164 21.1667 26.7998 19.85 24.9831 19.85C24.4209 19.8541 23.8734 20.0305 23.4145 20.3553C22.9556 20.6801 22.6072 21.1378 22.4164 21.6667C22.286 22.0584 22.2295 22.471 22.2498 22.8834V31.2167H17.2498C17.2498 31.2167 17.2498 17.5834 17.2498 16.2167H22.2498V18.3334C22.704 17.5452 23.3646 16.8959 24.1605 16.4554C24.9564 16.0148 25.8574 15.7998 26.7664 15.8334C30.0998 15.8334 32.5164 17.9834 32.5164 22.6V31.2334Z" />
    </g>
    <defs>
        <filter id="filter0_d_704_611" x="-3" y="0" width="40" height="40" filterUnits="userSpaceOnUse"
            color-interpolation-filters="sRGB">
            <feFlood flood-opacity="0" result="BackgroundImageFix" />
            <feColorMatrix in="SourceAlpha" type="matrix" values="0 0 0 0 0 0 0 0 0 0 0 0 0 0 0 0 0 0 127 0"
                result="hardAlpha" />
            <feOffset dy="4" />
            <feGaussianBlur stdDeviation="2" />
            <feComposite in2="hardAlpha" operator="out" />
            <feColorMatrix type="matrix" values="0 0 0 0 0 0 0 0 0 0 0 0 0 0 0 0 0 0 0.25 0" />
            <feBlend mode="normal" in2="BackgroundImageFix" result="effect1_dropShadow_704_611" />
            <feBlend mode="normal" in="SourceGraphic" in2="effect1_dropShadow_704_611" result="shape" />
        </filter>
    </defs>
</svg>