<svg width="396" height="396" viewBox="0 0 396 396" fill="none" xmlns="http://www.w3.org/2000/svg">
<path d="M313.5 148.5L288.75 148.5V148.5C275.081 148.5 264 159.581 264 173.25V173.25L264 247.5C264 283.951 234.451 313.5 198 313.5V313.5V313.5C161.549 313.5 132 283.951 132 247.5L132 214.499" stroke="black" stroke-width="33" stroke-linecap="round"/>
<path d="M198 247.5V165C198 155.887 190.613 148.5 181.5 148.5H132H115.5C97.2746 148.5 82.5 133.725 82.5 115.5V115.5C82.5 97.2746 97.2746 82.5 115.5 82.5H132H313.5" stroke="black" stroke-width="33" stroke-linecap="round"/>
<path d="M16.4997 313.499V82.499C16.4997 46.0482 46.049 16.499 82.4998 16.499H313.5C349.951 16.499 379.5 46.0482 379.5 82.499V313.499C379.5 349.95 349.951 379.499 313.5 379.499H198H82.4998C46.049 379.499 16.4997 349.95 16.4997 313.499Z" stroke="black" stroke-width="33"/>
</svg>
